<?xml version="1.0" encoding="UTF-8" standalone="no"?>
<svg
   xmlns:dc="http://purl.org/dc/elements/1.1/"
   xmlns:cc="http://creativecommons.org/ns#"
   xmlns:rdf="http://www.w3.org/1999/02/22-rdf-syntax-ns#"
   xmlns:svg="http://www.w3.org/2000/svg"
   xmlns="http://www.w3.org/2000/svg"
   xmlns:sodipodi="http://sodipodi.sourceforge.net/DTD/sodipodi-0.dtd"
   xmlns:inkscape="http://www.inkscape.org/namespaces/inkscape"
   id="svg11"
   version="1.1"
   height="514.01276"
   width="323.40594"
   inkscape:version="0.48.1 "
   sodipodi:docname="annulifinal.svg">
  <sodipodi:namedview
     pagecolor="#ffffff"
     bordercolor="#666666"
     borderopacity="1"
     objecttolerance="10"
     gridtolerance="10"
     guidetolerance="10"
     inkscape:pageopacity="0"
     inkscape:pageshadow="2"
     inkscape:window-width="1920"
     inkscape:window-height="1018"
     id="namedview3123"
     showgrid="false"
     inkscape:zoom="2.6"
     inkscape:cx="60.962409"
     inkscape:cy="257.00638"
     inkscape:window-x="-8"
     inkscape:window-y="-8"
     inkscape:window-maximized="1"
     inkscape:current-layer="svg11" />
  <defs
     id="defs15">
    <marker
       inkscape:stockid="Arrow2Lstart"
       orient="auto"
       refY="0.0"
       refX="0.0"
       id="Arrow2Lstart"
       style="overflow:visible">
      <path
         id="path3916"
         style="font-size:12.0;fill-rule:evenodd;stroke-width:0.62500000;stroke-linejoin:round"
         d="M 8.7185878,4.0337352 L -2.2072895,0.016013256 L 8.7185884,-4.0017078 C 6.9730900,-1.6296469 6.9831476,1.6157441 8.7185878,4.0337352 z "
         transform="scale(1.1) translate(1,0)" />
    </marker>
    <marker
       inkscape:stockid="Arrow2Lend"
       orient="auto"
       refY="0.0"
       refX="0.0"
       id="Arrow2Lend"
       style="overflow:visible;">
      <path
         id="path3919"
         style="font-size:12.0;fill-rule:evenodd;stroke-width:0.62500000;stroke-linejoin:round;"
         d="M 8.7185878,4.0337352 L -2.2072895,0.016013256 L 8.7185884,-4.0017078 C 6.9730900,-1.6296469 6.9831476,1.6157441 8.7185878,4.0337352 z "
         transform="scale(1.1) rotate(180) translate(1,0)" />
    </marker>
    <marker
       inkscape:stockid="Arrow1Mend"
       orient="auto"
       refY="0.0"
       refX="0.0"
       id="Arrow1Mend"
       style="overflow:visible;">
      <path
         id="path3907"
         d="M 0.0,0.0 L 5.0,-5.0 L -12.5,0.0 L 5.0,5.0 L 0.0,0.0 z "
         style="fill-rule:evenodd;stroke:#000000;stroke-width:1.0pt;marker-start:none;"
         transform="scale(0.4) rotate(180) translate(10,0)" />
    </marker>
    <marker
       inkscape:stockid="Arrow1Lstart"
       orient="auto"
       refY="0.0"
       refX="0.0"
       id="Arrow1Lstart"
       style="overflow:visible">
      <path
         id="path3898"
         d="M 0.0,0.0 L 5.0,-5.0 L -12.5,0.0 L 5.0,5.0 L 0.0,0.0 z "
         style="fill-rule:evenodd;stroke:#000000;stroke-width:1.0pt;marker-start:none"
         transform="scale(0.8) translate(12.5,0)" />
    </marker>
    <marker
       inkscape:stockid="Arrow1Mstart"
       orient="auto"
       refY="0.0"
       refX="0.0"
       id="Arrow1Mstart"
       style="overflow:visible">
      <path
         id="path3904"
         d="M 0.0,0.0 L 5.0,-5.0 L -12.5,0.0 L 5.0,5.0 L 0.0,0.0 z "
         style="fill-rule:evenodd;stroke:#000000;stroke-width:1.0pt;marker-start:none"
         transform="scale(0.4) translate(10,0)" />
    </marker>
    <marker
       inkscape:stockid="Arrow1Send"
       orient="auto"
       refY="0.0"
       refX="0.0"
       id="Arrow1Send"
       style="overflow:visible;">
      <path
         id="path3913"
         d="M 0.0,0.0 L 5.0,-5.0 L -12.5,0.0 L 5.0,5.0 L 0.0,0.0 z "
         style="fill-rule:evenodd;stroke:#000000;stroke-width:1.0pt;marker-start:none;"
         transform="scale(0.2) rotate(180) translate(6,0)" />
    </marker>
  </defs>

  <metadata
     id="metadata26">image/svg+xmlWind Turbine Silhouette2007-03-04Erland Howdenen-AUwind turbinerenewable energyrenewableswindturbineelectricitypowergenerationkinetic energyclimate changeglobal warmingsustainabletechnologyA black silhouette of a single wind turbine seen from ground level and to the left.<rdf:RDF>
  <cc:Work
     rdf:about="">
    <dc:format>image/svg+xml</dc:format>
    <dc:type
       rdf:resource="http://purl.org/dc/dcmitype/StillImage" />
    <dc:title>BEM annulli</dc:title>
  </cc:Work>
</rdf:RDF>
</metadata>
  <g
     transform="translate(-51.154157,41.290947)"
     style="fill:none;stroke:#000000;stroke-opacity:1"
     id="g9">
    <title
       id="title5">Layer 1</title>
    <g
       style="fill:none;stroke:#000000;stroke-opacity:1"
       id="layer1">
      <path
         style="fill:none;stroke:#000000;stroke-opacity:1"
         d="m 199.56439,472.22226 c 0,0 -0.101,-8.36303 -0.64382,-22.23809 -0.75006,-19.16449 -9.20975,-267.74719 -9.18145,-269.49719 0.0502,-3.07246 0.0808,-3.18162 0.90392,-3.18162 2.67979,0.34465 5.11669,1.69069 7.80468,2.00134 3.73255,-0.80388 7.25782,-2.79347 10.40233,-4.9144 1.91695,-2.15039 0.70168,-5.74504 -0.30131,-8.35102 -0.22506,-0.58516 -1.13036,-2.30753 -1.67952,-4.00771 -3.11898,-9.65176 1.91236,0.98914 0,0 -3.17238,-1.00182 -10.79038,-8.26047 -13.21997,-6.39406 v 0 c -3.59099,-1.38724 -8.76935,-0.98686 -12.26538,-2.60191 -0.0881,-0.0602 0.57156,-0.8519 1.46588,-1.75907 1.46177,-1.48234 4.35429,-3.36278 9.97911,-6.48643 1.05046,-0.58335 11.9239,-8.87912 15.01137,-11.73874 3.50608,-3.24683 6.75926,-6.50862 15.12184,-15.16174 10.68307,-11.05439 16.13075,-16.41718 40.60034,-39.972073 2.66562,-2.566132 22.50787,-20.421276 24.38284,-22.099274 3.45267,-3.090134 49.82346,-42.583627 51.05289,-43.651836 2.45566,-2.133749 3.00165,-2.887285 2.68573,-3.704769 -0.53595,-1.385196 -5.73987,0.46481 -10.67899,3.796527 -1.45492,0.981162 -48.3078,37.406983 -51.05057,39.532895 -1.31021,1.015404 -27.9506,23.15136 -29.5046,24.246918 -1.77036,1.247749 -27.78804,23.625092 -30.60204,26.270482 -1.54213,1.45019 -36.3652,31.90638 -42.62456,37.46936 -3.28149,2.91621 -5.5609,4.65672 -6.55429,5.00454 -0.83771,0.29302 -1.70192,0.67075 -1.92106,0.83922 -0.2191,0.16849 -0.77835,0.39856 -1.24309,0.5118 -1.0605,0.25814 -3.18059,-1.48327 -3.54077,-2.90854 -0.47252,-1.8664 -5.639,-11.92441 -7.03823,-13.70113 -2.37345,-3.01406 -22.92836,-20.16993 -24.88317,-21.66994 -1.9553,-1.5 -23.77979,-18.531322 -24.56775,-19.18214 -6.30731,-5.207443 -10.274037,-8.196129 -11.121792,-8.380463 -0.733635,-0.159424 -1.111633,0.626816 -1.118042,2.326096 -0.0068,1.812508 1.856239,4.856445 5.353654,8.746407 1.28556,1.42981 21.22965,24.68986 22.59373,26.10246 1.36409,1.4126 20.94844,23.18894 24.94482,27.16088 l 7.26648,7.2215 0.32001,2.09193 c 0.57704,3.77358 0.90757,4.66535 2.28535,6.16716 0.89844,1.08153 1.02353,2.41849 0.84548,3.78716 -0.15111,1.16214 -0.66378,4.06204 -1.49238,7.0453 -0.27755,1.00002 -8.47927,26.78119 -8.74539,28.03706 -0.3237,1.53037 -18.51584,58.83872 -18.93767,60.13853 -0.42179,1.30032 -16.39324,58.53241 -16.65118,59.6325 -4.61909,16.76728 -8.28085,33.77597 -12.15945,50.72351 -0.41497,1.90622 -1.18649,6.75177 -1.562215,10.18796 0.03194,0.33063 0.205894,0.53848 0.525909,0.53848 0.308616,0 0.655106,-0.28619 0.769686,-0.63629 0.1146,-0.34967 0.78615,-2.10873 1.49283,-3.90857 1.7106,-4.3587 3.17237,-8.82925 4.49857,-13.75909 0.60033,-2.23187 10.38268,-36.37378 11.38932,-39.87381 1.00664,-3.49954 17.99152,-58.87747 19.04564,-62.17731 5.22675,-16.35876 19.56061,-57.67004 21.63689,-62.35937 3.52433,-8.36055 6.55519,-16.92534 10.27676,-25.20436 1.17508,-2.50499 1.79459,-3.23778 2.61357,-3.81298 0.79801,-0.56067 1.61243,-0.96603 1.81012,-0.9008 0.19724,0.0652 0.80255,1.17844 1.34491,2.47374 0.97421,2.32745 0.98427,2.43886 0.85874,9.44568 -0.0703,3.89992 -7.27052,275.36273 -7.35819,281.26492 l -0.55199,11.44315 31.91547,0.0272 z"
         id="path18665" />
    </g>
  </g>
  <ellipse
     transform="matrix(0.807586,0.58974983,-0.43701536,0.89945404,0,0)"
     ry="228.03113"
     rx="157.02982"
     cy="88.209328"
     cx="247.96346"
     id="path825"
     style="fill:none;fill-opacity:1;stroke:#000000;stroke-width:0.89513755;stroke-miterlimit:4;stroke-dasharray:0.89513754, 0.89513754;stroke-dashoffset:0;stroke-opacity:1" />
  <path
     id="path905"
     d=""
     style="opacity:0.5;fill:#ddff55;fill-opacity:1;stroke:#000000;stroke-width:0.63428575;stroke-miterlimit:4;stroke-dasharray:0.63428571, 0.63428571;stroke-dashoffset:0;stroke-opacity:1" />
  <g
     transform="translate(-351.15416,14.14809)"
     style="fill:none;stroke:#000000;stroke-width:0.1;stroke-miterlimit:4;stroke-dasharray:none;stroke-opacity:1"
     id="g939">
    <g
       style="fill:none;stroke:#000000;stroke-width:0.1;stroke-miterlimit:4;stroke-dasharray:none;stroke-opacity:1"
       id="g919"
       transform="translate(300,27.142857)">
      <g
         style="fill:none;stroke:#000000;stroke-width:0.1;stroke-miterlimit:4;stroke-dasharray:none;stroke-opacity:1"
         id="g889">
        <g
           style="fill:none;stroke:#000000;stroke-width:0.1;stroke-miterlimit:4;stroke-dasharray:none;stroke-opacity:1"
           id="g881">
          <ellipse
             transform="matrix(0.807586,0.58974983,-0.43701536,0.89945404,0,0)"
             ry="182.91974"
             rx="125.96463"
             cy="23.511961"
             cx="275.41086"
             id="path825-4"
             style="fill:none;fill-opacity:1;stroke:#000000;stroke-width:0.10080378;stroke-miterlimit:4;stroke-dasharray:none;stroke-opacity:1"
             d="m 401.37549,23.511961 c 0,101.023779 -56.39629,182.919739 -125.96463,182.919739 -69.56835,0 -125.96463,-81.89596 -125.96463,-182.919739 0,-101.023782 56.39628,-182.919741 125.96463,-182.919741 69.56834,0 125.96463,81.895959 125.96463,182.919741 z" />
          <ellipse
             transform="matrix(0.807586,0.58974983,-0.43701536,0.89945404,0,0)"
             ry="161.27078"
             rx="111.05643"
             cy="22.925802"
             cx="275.09366"
             id="path825-4-7"
             style="fill:none;fill-opacity:1;stroke:#000000;stroke-width:0.10080378;stroke-miterlimit:4;stroke-dasharray:none;stroke-opacity:1"
             d="m 386.15009,22.925802 c 0,89.067398 -49.72166,161.270778 -111.05643,161.270778 -61.33477,0 -111.05643,-72.20338 -111.05643,-161.270778 0,-89.067394 49.72166,-161.270782 111.05643,-161.270782 61.33477,0 111.05643,72.203388 111.05643,161.270782 z" />
        </g>
        <path
           style="fill:none;fill-opacity:1;stroke:#000000;stroke-width:0.1;stroke-miterlimit:4;stroke-dasharray:none;stroke-dashoffset:0;stroke-opacity:1"
           d="m 293.76025,45.909407 c -1.8916,-2.558521 -2.32358,-1.950104 5.9632,-8.398738 l 5.65201,-4.398309 1.68314,1.581222 c 0.92572,0.869673 1.5966,1.788844 1.49084,2.042605 -0.17494,0.419739 -9.34192,8.422548 -12.03326,10.505083 -0.94036,0.727639 -1.39611,0.507386 -2.75593,-1.331863 z"
           id="path883" />
      </g>
      <g
         style="fill:none;stroke:#000000;stroke-width:0.1;stroke-miterlimit:4;stroke-dasharray:none;stroke-opacity:1"
         id="g909">
        <path
           style="opacity:0.5;fill:none;fill-opacity:1;stroke:#000000;stroke-width:0.1;stroke-miterlimit:4;stroke-dasharray:none;stroke-dashoffset:0;stroke-opacity:1"
           d="m 113.43356,327.01301 c -0.77426,-2.01771 -0.43042,-4.09425 2.04278,-12.33687 2.63038,-8.76646 2.76445,-9.05309 3.90471,-8.34837 1.05169,0.64999 0.95358,2.95517 -0.32144,7.55228 -0.59578,2.14812 -1.23717,4.58611 -1.4253,5.41776 -0.18814,0.83165 -0.79641,2.59951 -1.35173,3.92857 -1.01525,2.42984 -1.13972,2.88876 -1.13972,4.20219 0,1.12996 -1.23107,0.83067 -1.7093,-0.41556 z"
           id="path901" />
        <path
           style="opacity:0.5;fill:none;fill-opacity:1;stroke:#000000;stroke-width:0.1;stroke-miterlimit:4;stroke-dasharray:none;stroke-dashoffset:0;stroke-opacity:1"
           d="m 120.06531,111.85068 c -0.97846,-1.05716 -2.66717,-3.10389 -3.75269,-4.54828 l -1.97367,-2.62617 1.90403,-2.87719 1.90403,-2.877181 4.03364,2.974571 c 2.2185,1.63601 4.14747,3.04778 4.28659,3.13726 0.33358,0.21455 -3.50629,8.04899 -4.13567,8.43797 -0.26799,0.16562 -1.2878,-0.56381 -2.26626,-1.62098 z"
           id="path903" />
      </g>
    </g>
    <path
       style="opacity:0.5;fill:none;fill-opacity:1;stroke:#000000;stroke-width:0.1;stroke-miterlimit:4;stroke-dasharray:none;stroke-dashoffset:0;stroke-opacity:1"
       d="m 408.75786,348.40257 c -16.26069,-24.73251 -24.50804,-56.38502 -24.5416,-94.18828 -0.0352,-39.69053 8.50035,-76.80581 26.61142,-115.71429 l 2.99236,-6.42857 1.31768,1.80285 c 2.22776,3.04806 6.29587,7.12572 7.10901,7.12572 0.42418,0 -0.31809,2.16964 -1.64948,4.82143 -9.25573,18.43498 -17.49695,45.5901 -21.1899,69.82143 -1.94986,12.79407 -2.69219,39.18837 -1.4481,51.48911 2.11496,20.91147 7.43203,39.82474 15.639,55.62933 4.47841,8.62429 4.82972,9.60829 3.9975,11.19664 -1.06525,2.03309 -4.43736,13.65441 -4.78175,16.47934 -0.12989,1.0655 -0.40023,2.10133 -0.60075,2.30185 -0.20052,0.20052 -1.75544,-1.75093 -3.45539,-4.33656 z"
       id="path921" />
    <path
       style="opacity:0.5;fill:none;fill-opacity:1;stroke:#000000;stroke-width:0.1;stroke-miterlimit:4;stroke-dasharray:none;stroke-dashoffset:0;stroke-opacity:1"
       d="m 426.45238,131.86327 c -0.32522,-0.77216 -4.81617,-4.11523 -7.1658,-5.33423 l -1.91836,-0.99526 4.46807,-7.51087 C 432.21572,100.57499 442.8051,86.851209 456.1905,73.5 c 20.71534,-20.662413 42.02596,-33.455648 65.56379,-39.359395 9.76369,-2.448923 25.73889,-3.112077 35.17428,-1.460137 11.27557,1.974116 21.54065,6.018566 30.86259,12.159886 5.2069,3.430322 17.3517,13.643397 17.3517,14.591777 0,0.287486 -0.76209,0.998936 -1.69353,1.581 -1.91914,1.19928 -7.79005,5.982995 -10.24097,8.344508 l -1.63143,1.571925 -3.27596,-2.835326 C 553.22464,37.735897 502.54122,45.568466 460.59699,87.82949 c -11.4716,11.558241 -24.73151,29.10392 -31.17698,41.25374 -1.72191,3.24583 -2.4745,3.95086 -2.96763,2.78004 z"
       id="path923" />
    <path
       style="opacity:0.5;fill:none;fill-opacity:1;stroke:#000000;stroke-width:0.1;stroke-miterlimit:4;stroke-dasharray:none;stroke-dashoffset:0;stroke-opacity:1"
       d="m 474.02638,389.50075 c -20.37856,-1.52438 -39.10434,-10.94736 -54.43375,-27.39154 -3.38827,-3.63466 -4.97631,-5.85048 -4.56937,-6.37568 0.34305,-0.44273 1.67867,-4.6621 2.96806,-9.37639 1.28939,-4.71428 2.48561,-9.05357 2.65826,-9.64285 0.22199,-0.75766 0.97293,-0.2347 2.56422,1.78571 27.38293,34.76738 68.83917,41.43205 110.00878,17.68544 32.66198,-18.83942 61.89589,-56.61629 78.82657,-101.86192 17.3363,-46.32963 19.92599,-97.81433 6.92175,-137.60923 -4.41201,-13.50143 -13.75463,-30.882708 -20.78136,-38.66228 l -2.34013,-2.590848 2.3253,-1.787847 c 2.19115,-1.684716 3.52078,-2.844841 8.79904,-7.677342 l 2.18804,-2.003252 4.24053,5.99675 c 17.48619,24.728078 26.7389,58.471909 26.71824,97.439099 -0.0622,117.27285 -83.08858,228.28126 -166.09418,222.07218 z"
       id="path925" />
  </g>
  <path
     id="path941"
     d="m 71.666763,141.05096 -4.10766,-3.27561 1.89794,-3.27792 c 19.27924,-33.29707 47.240167,-61.724354 74.468577,-75.710632 14.29393,-7.342292 26.19299,-10.951852 40.31008,-12.227997 24.76405,-2.238598 44.92093,4.839295 65.44959,22.981983 l 3.75805,3.321266 -6.23069,4.89302 c -3.42688,2.691161 -6.63642,5.126133 -7.1323,5.411048 -0.54807,0.314899 -2.59175,-0.838403 -5.21187,-2.941185 -31.16101,-25.008365 -73.85307,-21.225822 -112.65162,9.981007 -14.22962,11.44531 -32.102747,32.3536 -41.623717,48.69215 -1.7742,3.04465 -3.58423,5.51159 -4.02228,5.4821 -0.43804,-0.0295 -2.64489,-1.52764 -4.9041,-3.32923 z"
     style="opacity:0.5;fill:none;fill-opacity:1;stroke:none;stroke-width:0.63428575;stroke-miterlimit:4;stroke-dasharray:0.63428571, 0.63428571;stroke-dashoffset:0;stroke-opacity:1" />
  <path
     id="path943"
     d="m 145.41219,397.82666 c -0.003,-2.45535 -0.20584,-6.58954 -0.45122,-9.18708 l -0.44614,-4.72279 4.9155,-0.9105 c 16.142,-2.98995 34.50093,-12.04791 50.27265,-24.80363 6.54593,-5.29416 20.2388,-19.28877 26.25643,-26.835 2.44125,-3.06137 7.14964,-9.65066 10.46307,-14.64285 37.46595,-56.44802 49.72358,-130.25298 31.06643,-187.05536 -3.82548,-11.64679 -14.04908,-30.679741 -19.82808,-36.91329 l -1.88642,-2.034788 3.92857,-3.561786 c 2.16072,-1.958983 5.10871,-4.505718 6.5511,-5.659412 l 2.62252,-2.097626 4.40973,6.592631 c 20.77095,31.052891 29.21969,74.828861 23.8236,123.438631 -10.13379,91.28851 -68.00108,174.041 -133.6272,191.0921 -3.73631,0.97077 -7.07952,1.76504 -7.42937,1.76504 -0.34985,0 -0.63838,-2.00893 -0.64117,-4.46429 z"
     style="opacity:0.5;fill:none;fill-opacity:1;stroke:none;stroke-width:0.63428575;stroke-miterlimit:4;stroke-dasharray:0.63428571, 0.63428571;stroke-dashoffset:0;stroke-opacity:1" />
  <path
     id="path945"
     d="m 121.31013,403.30002 c -0.98789,-0.45788 -1.17964,-6.79482 -0.44188,-14.6035 l 0.44083,-4.66586 10.87967,0.023 10.87967,0.023 0.47813,8.87487 c 0.26541,4.92648 0.19695,9.15605 -0.1539,9.50689 -0.71619,0.71619 -20.70915,1.47816 -22.08252,0.8416 z"
     style="opacity:0.5;fill:none;fill-opacity:1;stroke:none;stroke-width:0.63428575;stroke-miterlimit:4;stroke-dasharray:0.63428571, 0.63428571;stroke-dashoffset:0;stroke-opacity:1" />
  <path
     id="path947"
     d="m 110.01843,401.26205 c -9.38966,-2.42777 -16.426897,-5.57825 -24.773627,-11.09083 -7.33315,-4.84316 -19.82753,-16.25195 -19.82753,-18.1048 0,-0.84877 4.39376,-16.39387 5.34925,-18.9256 0.21882,-0.5798 2.73329,1.57247 6.60911,5.65708 10.84939,11.43383 23.015797,19.12683 36.255917,22.92516 l 5.71429,1.63932 -0.19873,9.82143 c -0.23026,11.37963 0.64481,10.60526 -9.12868,8.07824 z"
     style="opacity:0.5;fill:none;fill-opacity:1;stroke:none;stroke-width:0.63428575;stroke-miterlimit:4;stroke-dasharray:0.63428571, 0.63428571;stroke-dashoffset:0;stroke-opacity:1" />
  <path
     id="path949"
     d="m 56.876573,361.12819 c -4.65864,-7.2919 -11.632908,-22.43332 -14.667273,-31.84323 -3.331842,-10.33242 -6.073314,-23.10492 -7.633714,-35.56544 -1.21704,-9.71864 -1.223334,-42.08387 -0.01021,-52.5 3.502127,-30.06994 11.599045,-58.89193 24.127787,-85.88587 l 3.20973,-6.91556 3.86724,4.25786 c 2.12698,2.34182 3.882,4.67817 3.90005,5.19189 0.018,0.51371 -1.69564,4.853 -3.80819,9.64286 -9.61877,21.809 -17.155122,51.22397 -18.967132,74.03017 -2.950806,37.13928 1.562142,66.36538 14.364562,93.02567 l 4.35129,9.0613 -2.70454,9.86727 c -1.4875,5.427 -2.95243,10.1476 -3.2554,10.49023 -0.30296,0.34262 -1.55136,-0.94309 -2.7742,-2.85715 z"
     style="opacity:0.5;fill:none;fill-opacity:1;stroke:none;stroke-width:0.63428575;stroke-miterlimit:4;stroke-dasharray:0.63428571, 0.63428571;stroke-dashoffset:0;stroke-opacity:1" />
  <path
     id="path951"
     d="m 242.84924,86.930228 c -1.44429,-2.204269 -1.28897,-2.414042 5.8178,-7.857388 5.20671,-3.988019 5.40479,-4.07093 6.77121,-2.834338 0.77417,0.700621 1.40676,1.46511 1.40575,1.698865 -0.002,0.510479 -11.82778,10.782151 -12.41328,10.782151 -0.225,0 -0.93666,-0.80518 -1.58148,-1.78929 z"
     style="opacity:0.5;fill:none;fill-opacity:1;stroke:none;stroke-width:0.63428575;stroke-miterlimit:4;stroke-dasharray:0.63428571, 0.63428571;stroke-dashoffset:0;stroke-opacity:1" />
  <path
     id="path953"
     d="m 68.356673,152.11238 c -5.2174,-5.78063 -5.12138,-5.53917 -3.40129,-8.55269 0.84333,-1.47747 1.81168,-2.68879 2.15191,-2.69181 1.20234,-0.0107 7.59569,5.13016 7.59569,6.10765 0,1.37258 -3.01616,7.45828 -3.69644,7.45828 -0.30504,0 -1.49749,-1.04465 -2.64987,-2.32143 z"
     style="opacity:1;fill:none;fill-opacity:1;stroke:none;stroke-width:0.63428575;stroke-miterlimit:4;stroke-dasharray:0.63428571, 0.63428571;stroke-dashoffset:0;stroke-opacity:1" />
  <path
     id="path955"
     d="m 62.613173,367.92845 c -0.77563,-1.59822 -0.63114,-2.86516 1.01826,-8.92857 1.05718,-3.88634 2.39336,-8.19107 2.96929,-9.56607 0.89285,-2.13164 1.14833,-2.32087 1.73389,-1.28424 0.76002,1.34546 -0.74147,9.08242 -2.95231,15.21281 -0.70839,1.96428 -1.41786,4.21428 -1.57661,5 -0.26261,1.29977 -0.37013,1.26065 -1.19252,-0.43393 z"
     style="opacity:0.5;fill:#ff00ff;fill-opacity:1;stroke:none;stroke-width:0.63428575;stroke-miterlimit:4;stroke-dasharray:0.63428571, 0.63428571;stroke-dashoffset:0;stroke-opacity:1" />
  <path
     id="path957"
     d="m 145.83208,399.91221 c -0.18848,-1.24526 -0.49027,-5.33765 -0.67064,-9.0942 l -0.32795,-6.83008 4.75618,-0.8177 c 11.70324,-2.01206 30.49292,-10.42182 42.97046,-19.23243 9.87541,-6.97321 30.76325,-28.13349 38.47592,-38.97778 19.05518,-26.79223 32.58494,-57.04347 39.68888,-88.7405 6.15116,-27.44577 7.0917,-59.24417 2.50565,-84.71291 -3.82231,-21.22731 -13.5891,-43.86212 -25.55121,-59.215663 l -1.39127,-1.785714 6.09438,-5.315106 6.09439,-5.315105 1.68727,2.10082 c 5.65319,7.038762 14.05456,23.414618 18.30108,35.672248 9.70181,28.00447 12.38373,65.20676 7.23475,100.35715 -6.71469,45.83895 -25.07334,89.56173 -52.48592,125 -6.7242,8.69287 -22.02819,24.37984 -30.29678,31.05495 -16.48223,13.30584 -32.16199,21.51392 -50.5141,26.44322 l -6.22838,1.67293 z"
     style="opacity:0.5;fill:none;fill-opacity:1;stroke:none;stroke-width:0.63428575;stroke-miterlimit:4;stroke-dasharray:0.63428571, 0.63428571;stroke-dashoffset:0;stroke-opacity:1" />
  <path
     id="path959"
     d="m 120.8654,400.78163 c -0.24459,-1.22299 -0.23645,-5.40156 0.0181,-9.28572 l 0.46281,-7.0621 h 10.53049 c 8.94351,0 10.59583,0.17027 10.96406,1.12985 0.23846,0.62141 0.43356,4.59909 0.43356,8.83928 v 7.70944 l -2.23214,0.44643 c -1.22768,0.24553 -6.16964,0.44643 -10.98214,0.44643 h -8.75 z"
     style="opacity:0.5;fill:none;fill-opacity:1;stroke:none;stroke-width:0.63428575;stroke-miterlimit:4;stroke-dasharray:0.63428571, 0.63428571;stroke-dashoffset:0;stroke-opacity:1" />
  <path
     id="path961"
     d="m 108.27441,400.54382 c -7.89239,-2.35627 -13.839047,-4.96947 -19.887787,-8.73948 -6.11885,-3.81371 -16.33046,-12.13088 -20.25374,-16.49629 l -2.64154,-2.93923 1.75696,-6.28893 c 0.96633,-3.45892 2.11282,-7.65501 2.54776,-9.32465 0.43494,-1.66965 1.09875,-3.03572 1.47512,-3.03572 0.37638,0 4.12019,3.31197 8.31958,7.35994 11.22237,10.81771 19.9597,16.25672 32.868557,20.46075 l 6.17223,2.01011 0.21543,7.04889 c 0.11848,3.87688 0.0236,8.09353 -0.21094,9.37031 -0.37998,2.06888 -0.67539,2.31339 -2.71542,2.24755 -1.25899,-0.0406 -4.69978,-0.7936 -7.64621,-1.67325 z"
     style="opacity:0.5;fill:none;fill-opacity:1;stroke:none;stroke-width:0.63428575;stroke-miterlimit:4;stroke-dasharray:0.63428571, 0.63428571;stroke-dashoffset:0;stroke-opacity:1" />
  <path
     id="path963"
     d="m 109.31574,400.52853 c -7.58736,-2.26233 -12.683737,-4.28566 -17.469897,-6.93578 -5.62968,-3.11718 -16.45265,-11.35125 -21.75906,-16.55421 l -4.55088,-4.46217 2.49557,-8.89271 c 1.37257,-4.89099 2.71437,-9.12013 2.98179,-9.39809 0.26741,-0.27796 3.62768,2.3789 7.46727,5.90414 12.71499,11.67401 20.28169,16.50292 33.008167,21.06509 l 6.42857,2.3045 0.62689,5.49298 c 0.35967,3.15149 0.35967,7.06774 0,9.18726 -0.76675,4.51843 -1.30426,4.65175 -9.22842,2.28899 z"
     style="opacity:0.5;fill:none;fill-opacity:1;stroke:none;stroke-width:0.63428575;stroke-miterlimit:4;stroke-dasharray:0.63428571, 0.63428571;stroke-dashoffset:0;stroke-opacity:1" />
  <path
     id="path965"
     d="m 121.28879,393.89809 0.19991,-9.10714 h 10.12074 c 5.56641,0 10.38635,0.26637 10.71098,0.59193 0.32462,0.32556 0.70522,4.21436 0.84576,8.64178 l 0.25554,8.04986 -3.82365,0.45915 c -2.10301,0.25253 -7.1279,0.46194 -11.16643,0.46536 l -7.34277,0.006 z"
     style="opacity:0.5;fill:none;fill-opacity:1;stroke:none;stroke-width:0.63428575;stroke-miterlimit:4;stroke-dasharray:0.63428571, 0.63428571;stroke-dashoffset:0;stroke-opacity:1" />
  <path
     id="path967"
     d="m 145.87814,397.88925 c -0.23851,-2.09692 -0.49549,-6.04069 -0.57106,-8.76393 l -0.13741,-4.95134 4.94523,-0.99149 c 10.16951,-2.03893 24.52403,-8.01582 36.18199,-15.06534 14.96498,-9.04928 36.85301,-31.00835 48.88183,-49.04049 20.76348,-31.12609 34.14354,-66.14196 39.16668,-102.5 1.58589,-11.47879 2.17731,-36.69268 1.1393,-48.57142 -2.39915,-27.45532 -11.77335,-53.91073 -26.05275,-73.52482 l -2.82614,-3.881956 4.94144,-4.529707 c 7.41621,-6.798266 6.76524,-6.775694 11.04824,-0.383096 8.96585,13.381977 17.50859,34.443989 21.01239,51.805789 10.52796,52.16745 1.81533,111.31414 -23.98325,162.81306 -12.66293,25.27763 -25.2444,42.96518 -43.6644,61.38516 -13.61981,13.61982 -25.15892,22.14869 -40.17865,29.69713 -7.41379,3.72594 -21.1834,8.76102 -26.88133,9.82961 l -2.58845,0.48543 z"
     style="opacity:0.5;fill:none;fill-opacity:1;stroke:none;stroke-width:0.63428575;stroke-miterlimit:4;stroke-dasharray:0.63428571, 0.63428571;stroke-dashoffset:0;stroke-opacity:1" />
  <path
     id="path975"
     d="m 67.199613,150.53821 c -3.49186,-4.08728 -3.62638,-4.96823 -1.23203,-8.06832 l 1.241,-1.60678 3.56863,2.53229 c 1.96275,1.39275 3.66729,2.81358 3.78788,3.15739 0.22372,0.63782 -3.22048,7.88102 -3.74748,7.88102 -0.15943,0 -1.78753,-1.75302 -3.618,-3.8956 z"
     style="opacity:1;fill:#ff00ff;fill-opacity:1;stroke:#000000;stroke-width:0.07142857;stroke-miterlimit:4;stroke-dasharray:none;stroke-dashoffset:0;stroke-opacity:1" />
  <path
     id="path977"
     d="m 242.96702,87.145223 c -0.61665,-0.880392 -1.12118,-1.823942 -1.12118,-2.096778 0,-0.272836 2.76246,-2.653147 6.13879,-5.28958 6.11635,-4.775993 6.14395,-4.788349 7.55186,-3.380439 1.40791,1.40791 1.39657,1.428069 -3.10307,5.514762 -2.48388,2.255927 -5.37769,4.720675 -6.43068,5.477218 -1.90739,1.370398 -1.91872,1.369557 -3.03572,-0.225183 z"
     style="opacity:1;fill:#ff00ff;fill-opacity:1;stroke:#000000;stroke-width:0.07142857;stroke-miterlimit:4;stroke-dasharray:none;stroke-dashoffset:0;stroke-opacity:1" />
  <path
     id="path981"
     d="m 145.41106,396.76884 c -0.003,-3.05213 -0.202,-7.17858 -0.44131,-9.16988 l -0.43509,-3.62057 5.26273,-0.93544 c 12.20248,-2.16896 30.11591,-10.16771 42.26949,-18.87428 40.4694,-28.99141 71.99407,-83.85268 81.16779,-141.25346 2.39269,-14.9713 3.10851,-26.13622 2.70976,-42.26493 -0.41886,-16.9417 -1.61891,-26.24579 -5.18921,-40.23232 -4.63024,-18.13879 -12.32259,-34.1446 -23.18371,-48.239335 l -1.46259,-1.898037 6.25106,-5.362938 6.25107,-5.362939 2.39256,3.332404 c 12.61439,17.569535 20.97285,39.344165 25.1823,65.602345 1.14375,7.13464 1.59799,14.60454 2.05547,33.80149 0.32299,13.55357 0.46255,24.77679 0.31014,24.94048 -0.15241,0.16368 -0.31287,-1.44346 -0.35659,-3.57143 -0.0544,-2.64471 -0.38661,-1.04975 -1.05004,5.04024 -9.42651,86.53141 -62.00272,166.18965 -124.71869,188.96132 -3.65848,1.32836 -6.00893,2.45385 -5.22322,2.50108 l 1.42857,0.0859 -1.42857,0.61388 c -0.78571,0.33763 -2.07143,0.61388 -2.85714,0.61388 h -1.42857 l 1.42857,-0.61392 c 1.91435,-0.82262 0.58875,-0.85727 -2.5,-0.0654 -1.375,0.35254 -3.38393,0.83901 -4.46429,1.08105 l -1.96428,0.44007 -0.006,-5.54932 z"
     style="opacity:1;fill:#ffe680;fill-opacity:1;stroke:#000000;stroke-width:0.07142857;stroke-miterlimit:4;stroke-dasharray:none;stroke-dashoffset:0;stroke-opacity:1" />
  <path
     id="path983"
     d="m 122.38155,403.25512 c -1.87665,-0.32939 -1.96428,-0.52904 -1.96428,-4.47527 0,-2.27178 0.20119,-6.51057 0.44709,-9.41955 l 0.44708,-5.28905 10.80292,0.25592 c 5.9416,0.14076 10.83918,0.30269 10.8835,0.35985 0.0443,0.0572 0.29235,4.00437 0.55116,8.77158 0.39465,7.2693 0.30119,8.73265 -0.5793,9.07053 -1.45531,0.55845 -18.18219,1.14828 -20.58817,0.72599 z"
     style="opacity:1;fill:#ffe680;fill-opacity:1;stroke:#000000;stroke-width:0.07142857;stroke-miterlimit:4;stroke-dasharray:none;stroke-dashoffset:0;stroke-opacity:1" />
  <path
     id="path985"
     d="m 115.06013,402.25126 c -1.57143,-0.32433 -3.98215,-0.46058 -5.35715,-0.30277 -1.375,0.15781 -1.86027,0.10026 -1.07838,-0.12788 1.01907,-0.29734 -0.19446,-0.96584 -4.28572,-2.36088 -11.978027,-4.08428 -22.225287,-10.51304 -32.314467,-20.27294 -3.63393,-3.51533 -6.59045,-6.90677 -6.57005,-7.53653 0.0639,-1.97256 5.35809,-18.73386 5.90838,-18.70576 0.28776,0.0147 2.28494,2.10334 4.43817,4.64145 9.53462,11.23887 26.310577,21.76891 39.549847,24.8249 l 3.63794,0.83974 v 9.87732 c 0,5.43253 -0.24107,9.84036 -0.53572,9.79518 -0.29464,-0.0452 -1.82143,-0.3475 -3.39285,-0.67183 z"
     style="opacity:1;fill:#ffe680;fill-opacity:1;stroke:#000000;stroke-width:0.07142857;stroke-miterlimit:4;stroke-dasharray:none;stroke-dashoffset:0;stroke-opacity:1" />
  <path
     id="path987"
     d="M 55.583053,358.60012 C 44.515952,340.16424 38.347881,321.22559 34.94202,295.22324 33.495983,284.18334 33.289955,254.21095 34.580621,242.64809 38.033148,211.71752 45.95514,183.38515 59.325023,154.15173 l 2.57909,-5.63922 3.51315,3.85351 c 1.93223,2.11942 3.69136,4.36156 3.90917,4.98253 0.21782,0.62097 -0.86616,3.86104 -2.40884,7.20016 -9.43565,20.42344 -18.151887,52.96299 -20.059157,74.8851 -1.236662,14.21415 -0.910857,39.06659 0.650796,49.64285 1.676221,11.35214 3.521291,19.64286 4.371451,19.64286 0.34903,0 0.46883,0.43203 0.2662,0.96007 -0.59855,1.5598 4.49465,15.85015 9.05889,25.41717 l 4.23517,8.87725 -2.62917,9.69418 c -1.44605,5.3318 -2.86014,9.96189 -3.14244,10.28907 -0.28229,0.32719 -2.12112,-2.08352 -4.08628,-5.35714 z"
     style="opacity:1;fill:#ffe680;fill-opacity:1;stroke:#000000;stroke-width:0.07142857;stroke-miterlimit:4;stroke-dasharray:none;stroke-dashoffset:0;stroke-opacity:1" />
  <path
     id="path989"
     d="m 72.028313,141.12993 -4.31429,-3.30387 1.48143,-2.58898 c 4.12667,-7.21185 15.21904,-23.45101 20.55269,-30.08899 7.15404,-8.903561 21.676917,-23.672152 29.406247,-29.903762 15.97216,-12.877219 32.95804,-21.736822 50.40506,-26.290583 9.36455,-2.444195 28.98966,-3.174471 37.72779,-1.4039 15.92249,3.226308 28.37887,9.684316 41.59015,21.562393 2.02551,1.821102 3.68274,3.558915 3.68274,3.861808 0,0.302892 -2.92207,2.824485 -6.49348,5.60354 l -6.49348,5.052826 -5.82795,-4.429707 C 208.37353,59.916196 176.71258,58.515861 144.65675,75.260404 124.81208,85.626388 108.04809,100.65159 90.991823,123.35913 c -3.53969,4.7125 -8.09024,11.37447 -10.11232,14.80438 -2.02208,3.42992 -3.8701,6.24388 -4.1067,6.25325 -0.23661,0.009 -2.37162,-1.4697 -4.74449,-3.28683 z"
     style="opacity:1;fill:#ffe680;fill-opacity:1;stroke:#000000;stroke-width:0.07142857;stroke-miterlimit:4;stroke-dasharray:none;stroke-dashoffset:0;stroke-opacity:1" />
  <path
     style="fill:none;stroke:#000000;stroke-width:1px;stroke-linecap:butt;stroke-linejoin:miter;stroke-opacity:1;marker-start:url(#Arrow1Mend);marker-end:url(#Arrow2Lend)"
     d="M 121.73913,199.72704 282.6087,171.77673"
     id="path3125"
     inkscape:connector-curvature="0" />
  <flowRoot
     xml:space="preserve"
     id="flowRoot5095"
     style="font-size:9px;font-style:normal;font-variant:normal;font-weight:normal;font-stretch:normal;text-align:start;line-height:125%;letter-spacing:0px;word-spacing:0px;writing-mode:lr-tb;text-anchor:start;fill:#000000;fill-opacity:1;stroke:none;font-family:Sans;-inkscape-font-specification:Sans"
     transform="matrix(1.4936417,0,0,1.4936417,498.47005,-70.665742)"><flowRegion
       id="flowRegion5097"><rect
         id="rect5099"
         width="21.739084"
         height="16.149105"
         x="-168.32298"
         y="154.38544" /></flowRegion><flowPara
       id="flowPara5101"> r</flowPara></flowRoot>  <path
     style="fill:none;stroke:#000000;stroke-width:1px;stroke-linecap:butt;stroke-linejoin:miter;stroke-opacity:1;marker-start:url(#Arrow2Lend);marker-end:url(#Arrow2Lstart)"
     d="m 258.38509,122.08729 25.46584,-11.18012"
     id="path5103"
     inkscape:connector-curvature="0" />
  <flowRoot
     xml:space="preserve"
     id="flowRoot5095-1"
     style="font-size:32px;font-style:normal;font-variant:normal;font-weight:normal;font-stretch:normal;text-align:start;line-height:125%;letter-spacing:0px;word-spacing:0px;writing-mode:lr;text-anchor:start;fill:#000000;fill-opacity:1;stroke:none;font-family:SymbolPi;-inkscape-font-specification:SymbolPi"
     transform="translate(447.49197,-59.160771)"><flowRegion
       id="flowRegion5097-9"><rect
         id="rect5099-6"
         width="21.739084"
         height="16.149105"
         x="-168.32298"
         y="154.38544"
         style="-inkscape-font-specification:SymbolPi;font-family:SymbolPi;font-weight:normal;font-style:normal;font-stretch:normal;font-variant:normal;font-size:32px;text-anchor:start;text-align:start;writing-mode:lr;line-height:125%" /></flowRegion><flowPara
       id="flowPara6086"> d</flowPara></flowRoot>  <g
     id="g6144"
     transform="matrix(1.3551451,0,0,1.3551451,-83.365682,-35.374516)">

 <text y="150." x="250." font-size = "15" >r</text>
 <text y="120." x="230." font-size = "15" font-family = "Symbol" >d</text>
 <text y="120." x="237." font-size = "15"  > r</text>

 </g>
</svg>
