<?xml version="1.0" encoding="UTF-8"?>
<svg xmlns="http://www.w3.org/2000/svg" xmlns:xlink="http://www.w3.org/1999/xlink" width="125pt" height="77pt" viewBox="0 0 125 77" version="1.1">
<g id="surface1">
<path style=" stroke:none;fill-rule:nonzero;fill:rgb(100%,100%,100%);fill-opacity:1;" d="M 38.386719 44.984375 C 40.878906 44.984375 42.230469 43.328125 42.230469 41.007812 L 42.230469 29.164062 L 47.53125 29.164062 L 47.53125 41.273438 C 47.480469 46.601562 43.210938 48.695312 38.386719 48.695312 C 33.558594 48.695312 29.292969 46.601562 29.238281 41.273438 L 29.238281 29.164062 L 34.539062 29.164062 L 34.539062 41.007812 C 34.539062 43.328125 35.894531 44.984375 38.386719 44.984375 "/>
<path style=" stroke:none;fill-rule:nonzero;fill:rgb(100%,100%,100%);fill-opacity:1;" d="M 15.503906 48.300781 L 20.804688 48.300781 L 20.804688 32.878906 L 26.746094 32.878906 L 26.746094 29.167969 L 9.566406 29.167969 L 9.566406 32.878906 L 15.503906 32.878906 L 15.503906 48.300781 "/>
<path style=" stroke:none;fill-rule:nonzero;fill:rgb(100%,100%,100%);fill-opacity:1;" d="M 28.238281 19.847656 C 26.945312 20.253906 25.613281 19.929688 25.617188 18.203125 C 25.617188 15.566406 31.808594 13.355469 32.667969 11.050781 C 32.878906 10.476562 32.890625 10.003906 32.617188 10.019531 C 32.421875 10.03125 32.574219 10.316406 32.140625 10.753906 C 29.578125 13.316406 25.28125 13.3125 21.984375 14.789062 C 19.820312 15.761719 13.484375 18.742188 14.945312 25.394531 C 15.011719 25.707031 15.203125 26.765625 15.394531 26.765625 C 15.621094 26.765625 15.617188 26.136719 15.613281 25.375 C 15.5625 21.414062 20.253906 20.308594 21.777344 17.722656 C 21.960938 17.414062 22.277344 16.980469 22.351562 17.179688 C 22.386719 17.277344 22.363281 17.421875 22.300781 17.699219 C 21.824219 19.824219 19.601562 21.1875 20.230469 22.707031 C 21.046875 24.679688 23.40625 23.210938 24.128906 21.941406 C 24.324219 21.59375 24.429688 21.367188 24.5625 21.414062 C 24.660156 21.449219 24.65625 21.847656 24.59375 22.210938 C 24.207031 24.496094 23.679688 25.78125 22.007812 27.085938 C 21.472656 27.5 20.628906 27.589844 20.738281 27.90625 C 20.765625 27.992188 21.128906 27.980469 21.417969 27.953125 C 25.878906 27.667969 29.609375 22.410156 30.597656 18.976562 C 30.699219 18.734375 30.730469 18.507812 30.621094 18.421875 C 30.488281 18.320312 30.292969 18.554688 30.09375 18.734375 C 29.582031 19.179688 28.882812 19.648438 28.238281 19.847656 "/>
<path style=" stroke:none;fill-rule:nonzero;fill:rgb(100%,100%,100%);fill-opacity:1;" d="M 82.917969 42.125 L 82.917969 40.878906 C 82.917969 37.195312 80.832031 34.59375 77.058594 34.59375 C 72.84375 34.59375 70.882812 37.855469 70.882812 41.753906 C 70.882812 45.675781 72.582031 48.699219 76.847656 48.699219 C 80.03125 48.699219 82.363281 47.1875 82.761719 44.164062 L 80.109375 44.164062 C 79.816406 46.097656 78.835938 46.867188 76.875 46.867188 C 74.300781 46.867188 73.449219 44.578125 73.449219 42.125 Z M 73.503906 40.375 C 73.523438 38.296875 74.78125 36.421875 76.875 36.421875 C 79.3125 36.421875 80.265625 38.09375 80.265625 40.375 L 73.503906 40.375 "/>
<path style=" stroke:none;fill-rule:nonzero;fill:rgb(100%,100%,100%);fill-opacity:1;" d="M 85.972656 48.300781 L 88.492188 48.300781 L 88.492188 29.164062 L 85.972656 29.164062 Z M 85.972656 48.300781 "/>
<path style=" stroke:none;fill-rule:nonzero;fill:rgb(100%,100%,100%);fill-opacity:1;" d="M 96.386719 48.300781 L 96.386719 36.75 L 99.460938 36.75 L 99.460938 34.996094 L 96.386719 34.996094 L 96.386719 32.847656 C 96.386719 31.308594 97.128906 31.046875 98.5625 31.046875 C 98.984375 31.046875 99.410156 31.101562 99.832031 31.125 L 99.832031 29.035156 C 99.242188 28.902344 98.640625 28.769531 98.03125 28.769531 C 95.644531 28.769531 93.867188 29.964844 93.867188 32.511719 L 93.867188 34.996094 L 91.273438 34.996094 L 91.273438 36.75 L 93.867188 36.75 L 93.867188 48.300781 L 96.386719 48.300781 "/>
<path style=" stroke:none;fill-rule:nonzero;fill:rgb(100%,100%,100%);fill-opacity:1;" d="M 100.90625 34.996094 L 100.90625 36.75 L 103.1875 36.75 L 103.1875 45.226562 C 103.1875 46.996094 103.214844 48.695312 106.953125 48.695312 C 107.535156 48.695312 108.082031 48.640625 108.675781 48.539062 L 108.675781 46.605469 C 108.265625 46.703125 107.75 46.761719 107.351562 46.761719 C 106.449219 46.761719 105.707031 46.308594 105.707031 45.359375 L 105.707031 36.75 L 108.78125 36.75 L 108.78125 34.996094 L 105.707031 34.996094 L 105.707031 31.367188 L 103.1875 32.160156 L 103.1875 35 L 100.90625 34.996094 "/>
<path style=" stroke:none;fill-rule:nonzero;fill:rgb(100%,100%,100%);fill-opacity:1;" d="M 55.488281 31.445312 L 59.40625 31.445312 C 63.828125 31.445312 65.664062 34.78125 65.664062 38.734375 C 65.664062 42.6875 63.828125 46.023438 59.40625 46.023438 L 55.488281 46.023438 Z M 52.832031 48.300781 L 59.40625 48.300781 C 67.589844 48.300781 68.449219 41.371094 68.449219 38.734375 C 68.449219 36.09375 67.589844 29.164062 59.40625 29.164062 L 52.832031 29.164062 L 52.832031 48.300781 "/>
</g>
</svg>
