<?xml version="1.0" encoding="utf-8"?>
<!-- Generator: Adobe Illustrator 16.0.3, SVG Export Plug-In . SVG Version: 6.00 Build 0)  -->
<!DOCTYPE svg PUBLIC "-//W3C//DTD SVG 1.1//EN" "http://www.w3.org/Graphics/SVG/1.1/DTD/svg11.dtd">
<svg version="1.1" id="Layer_1" xmlns="http://www.w3.org/2000/svg" xmlns:xlink="http://www.w3.org/1999/xlink" x="0px" y="0px"
	 width="515.91px" height="728.5px" viewBox="0 0 515.91 728.5" enable-background="new 0 0 515.91 728.5" xml:space="preserve">
<g>
	<rect x="240.749" y="201.032" fill="none" width="122.308" height="23.237"/>
	<path fill="#00AEEF" stroke="#00AEEF" stroke-miterlimit="10" d="M250.777,201.682l0.094,3.133h-0.317
		c-0.063-0.842-0.266-1.437-0.608-1.783c-0.343-0.347-0.94-0.521-1.791-0.521h-3.737v10.362c0,0.553,0.104,0.945,0.313,1.176
		s0.556,0.347,1.042,0.347h0.463v0.356h-5.186v-0.356h0.3c0.502,0,0.861-0.116,1.076-0.347c0.214-0.231,0.321-0.614,0.321-1.147
		v-9.37c0-0.533-0.106-0.916-0.317-1.147s-0.571-0.347-1.08-0.347h-0.3v-0.356H250.777z"/>
</g>
<g>
	<g>
		<path fill="none" stroke="#00AEEF" stroke-width="3" stroke-miterlimit="10" d="M161.901,243.778
			c0-20.126,16.505-36.441,36.864-36.441s36.864,16.315,36.864,36.441c0,11.48-5.371,21.72-13.763,28.399"/>
		<g>
			<path fill="#00AEEF" d="M226.28,268.664l10.247,7.42l-0.246,0.369l-18.961,0.37c-6.185,1.132-12.369,2.265-18.554,3.396
				c5.139-3.623,10.277-7.246,15.416-10.87l13.54-13.278l0.412,0.027L226.28,268.664z"/>
		</g>
	</g>
</g>
<line opacity="0.7" fill="#006838" stroke="#006838" stroke-width="4" stroke-miterlimit="10" x1="77.175" y1="634.604" x2="249.068" y2="75.991"/>
<g>
	<rect x="241.63" y="52.475" fill="none" width="122.308" height="23.237"/>
	<path d="M249.438,66.492l-1.509-2.942c-0.614-1.125-1-1.856-1.369-2.626h-0.035c-0.333,0.77-0.667,1.48-1.281,2.646l-1.421,2.922
		h-1.755l3.615-6.733l-3.475-6.575h1.772l1.562,3.12c0.438,0.869,0.772,1.54,1.088,2.251h0.053c0.333-0.79,0.632-1.402,1.07-2.251
		l1.614-3.12h1.755l-3.597,6.477l3.685,6.832H249.438z"/>
	<path d="M252.113,73.066v-0.621l0.706-0.771c1.7-1.818,2.468-2.784,2.478-3.912c0-0.759-0.328-1.461-1.321-1.461
		c-0.604,0-1.106,0.345-1.413,0.633l-0.287-0.713c0.461-0.437,1.116-0.759,1.884-0.759c1.434,0,2.038,1.104,2.038,2.175
		c0,1.38-0.891,2.497-2.293,4.015l-0.532,0.552v0.023h2.99v0.84H252.113z"/>
	<path d="M257.604,59.838v-1.185h9.055v1.185H257.604z M257.604,63.708v-1.185h9.055v1.185H257.604z"/>
	<path d="M268.802,68.703V52.966h3.212v1.086h-2.019v13.565h2.019v1.086H268.802z"/>
	<path d="M274.349,56.935l1.211,2.054c0.316,0.533,0.579,1.027,0.86,1.56h0.053c0.28-0.572,0.562-1.066,0.842-1.58l1.193-2.034
		h1.667l-2.896,4.621l2.983,4.936h-1.755l-1.246-2.152c-0.333-0.553-0.614-1.086-0.912-1.658h-0.035
		c-0.281,0.572-0.579,1.086-0.895,1.658l-1.229,2.152h-1.702l3.018-4.877l-2.878-4.68H274.349z"/>
	<path d="M280.937,73.066v-0.621l0.706-0.771c1.7-1.818,2.468-2.784,2.478-3.912c0-0.759-0.327-1.461-1.32-1.461
		c-0.604,0-1.105,0.345-1.413,0.633l-0.286-0.713c0.46-0.437,1.115-0.759,1.884-0.759c1.433,0,2.037,1.104,2.037,2.175
		c0,1.38-0.891,2.497-2.293,4.015l-0.533,0.552v0.023h2.99v0.84H280.937z"/>
	<path d="M289.727,68.92c0.387-1.165,0.86-3.278,1.054-4.719l1.72-0.197c-0.404,1.678-1.176,3.87-1.667,4.798L289.727,68.92z"/>
	<path d="M298.643,56.935l1.859,5.647c0.193,0.632,0.404,1.382,0.544,1.955h0.035c0.158-0.573,0.334-1.303,0.544-1.994l1.685-5.608
		h1.632l-2.315,6.812c-1.105,3.278-1.86,4.956-2.913,5.983c-0.755,0.75-1.51,1.046-1.896,1.125l-0.386-1.461
		c0.386-0.138,0.895-0.415,1.351-0.849c0.422-0.375,0.948-1.046,1.299-1.935c0.07-0.178,0.123-0.316,0.123-0.415
		c0-0.099-0.035-0.237-0.105-0.454l-3.141-8.806H298.643z"/>
	<path d="M305.528,73.066v-0.621l0.706-0.771c1.7-1.818,2.468-2.784,2.478-3.912c0-0.759-0.327-1.461-1.32-1.461
		c-0.604,0-1.105,0.345-1.413,0.633l-0.286-0.713c0.46-0.437,1.115-0.759,1.884-0.759c1.433,0,2.037,1.104,2.037,2.175
		c0,1.38-0.891,2.497-2.293,4.015l-0.533,0.552v0.023h2.99v0.84H305.528z"/>
	<path d="M314.318,68.92c0.387-1.165,0.86-3.278,1.054-4.719l1.72-0.197c-0.404,1.678-1.176,3.87-1.667,4.798L314.318,68.92z"/>
	<path d="M321.707,65.485l3.844-5.627c0.368-0.513,0.719-0.967,1.105-1.481v-0.04h-4.598v-1.402h6.475l-0.018,1.086l-3.79,5.548
		c-0.351,0.533-0.702,1.007-1.088,1.501v0.039h4.966v1.382h-6.896V65.485z"/>
	<path d="M329.365,73.066v-0.621l0.706-0.771c1.7-1.818,2.468-2.784,2.478-3.912c0-0.759-0.327-1.461-1.32-1.461
		c-0.604,0-1.105,0.345-1.413,0.633l-0.286-0.713c0.46-0.437,1.115-0.759,1.884-0.759c1.433,0,2.037,1.104,2.037,2.175
		c0,1.38-0.891,2.497-2.293,4.015l-0.533,0.552v0.023h2.99v0.84H329.365z"/>
	<path d="M337.699,52.947v15.756h-3.212v-1.086h2.019V54.033h-2.019v-1.086H337.699z"/>
</g>
<g>
	<rect x="40.813" y="643.898" fill="none" width="122.308" height="23.237"/>
	<path d="M48.622,657.915l-1.509-2.942c-0.614-1.125-1-1.855-1.369-2.626h-0.035c-0.333,0.771-0.667,1.481-1.281,2.646l-1.421,2.922
		h-1.755l3.615-6.733l-3.475-6.574h1.772l1.562,3.119c0.438,0.869,0.772,1.54,1.088,2.251h0.053c0.333-0.79,0.632-1.401,1.07-2.251
		l1.614-3.119h1.755l-3.597,6.476l3.685,6.832H48.622z"/>
	<path d="M53.252,657.954h-0.021l-1.157,0.702l-0.174-0.771l1.454-0.875h0.768v7.479h-0.87V657.954z"/>
	<path d="M56.787,651.261v-1.185h9.055v1.185H56.787z M56.787,655.131v-1.185h9.055v1.185H56.787z"/>
	<path d="M67.986,660.127V644.39h3.211v1.086h-2.018v13.564h2.018v1.087H67.986z"/>
	<path d="M73.532,648.358l1.211,2.054c0.315,0.533,0.579,1.026,0.859,1.56h0.053c0.281-0.572,0.562-1.066,0.842-1.579l1.193-2.034
		h1.667l-2.896,4.62l2.983,4.937h-1.755l-1.246-2.152c-0.333-0.553-0.614-1.086-0.913-1.658h-0.035
		c-0.281,0.572-0.579,1.086-0.895,1.658l-1.229,2.152h-1.702l3.019-4.877l-2.878-4.68H73.532z"/>
	<path d="M82.075,657.954h-0.021l-1.157,0.702l-0.174-0.771l1.454-0.875h0.768v7.479h-0.87V657.954z"/>
	<path d="M88.91,660.344c0.386-1.165,0.86-3.277,1.053-4.719l1.72-0.198c-0.403,1.679-1.176,3.87-1.667,4.799L88.91,660.344z"/>
	<path d="M97.826,648.358l1.86,5.647c0.193,0.632,0.403,1.382,0.544,1.954h0.035c0.158-0.572,0.333-1.303,0.544-1.994l1.685-5.607
		h1.632l-2.316,6.813c-1.105,3.277-1.86,4.956-2.913,5.982c-0.755,0.75-1.509,1.046-1.896,1.125l-0.386-1.461
		c0.386-0.138,0.895-0.414,1.351-0.849c0.421-0.375,0.948-1.047,1.298-1.936c0.07-0.178,0.123-0.315,0.123-0.414
		s-0.035-0.237-0.105-0.454l-3.141-8.807H97.826z"/>
	<path d="M106.667,657.954h-0.021l-1.157,0.702l-0.174-0.771l1.454-0.875h0.768v7.479h-0.87V657.954z"/>
	<path d="M113.502,660.344c0.386-1.165,0.86-3.277,1.053-4.719l1.72-0.198c-0.403,1.679-1.176,3.87-1.667,4.799L113.502,660.344z"/>
	<path d="M120.892,656.908l3.843-5.627c0.369-0.514,0.72-0.968,1.105-1.481v-0.039h-4.597v-1.402h6.475l-0.018,1.086l-3.791,5.549
		c-0.351,0.533-0.702,1.007-1.088,1.5v0.04h4.966v1.382h-6.896V656.908z"/>
	<path d="M130.505,657.954h-0.021l-1.157,0.702l-0.174-0.771l1.454-0.875h0.768v7.479h-0.87V657.954z"/>
	<path d="M136.883,644.37v15.757h-3.211v-1.087h2.018v-13.584h-2.018v-1.086H136.883z"/>
</g>
<g>
	<rect x="317.709" y="382.717" fill="none" width="122.309" height="23.236"/>
	<path d="M325.517,396.733l-1.509-2.942c-0.614-1.125-1-1.855-1.369-2.626h-0.035c-0.333,0.771-0.667,1.481-1.28,2.646l-1.422,2.922
		h-1.755l3.615-6.733l-3.475-6.574h1.772l1.562,3.119c0.438,0.869,0.772,1.54,1.088,2.251h0.053c0.333-0.79,0.632-1.401,1.07-2.251
		l1.614-3.119h1.755l-3.598,6.476l3.686,6.832H325.517z"/>
	<path d="M328.478,399.557c0-0.713-0.021-1.288-0.041-1.817h0.81l0.041,0.955h0.021c0.368-0.679,0.952-1.082,1.761-1.082
		c1.198,0,2.099,1.14,2.099,2.83c0,2.002-1.085,2.992-2.252,2.992c-0.655,0-1.229-0.322-1.526-0.875h-0.02v3.026h-0.892V399.557z
		 M329.369,401.041c0,0.149,0.02,0.288,0.04,0.414c0.164,0.702,0.707,1.186,1.352,1.186c0.952,0,1.506-0.875,1.506-2.151
		c0-1.116-0.522-2.071-1.475-2.071c-0.614,0-1.188,0.495-1.362,1.254c-0.03,0.127-0.061,0.276-0.061,0.414V401.041z"/>
	<path d="M334.255,390.079v-1.185h9.055v1.185H334.255z M334.255,393.949v-1.185h9.055v1.185H334.255z"/>
	<path d="M345.452,398.945v-15.737h3.212v1.086h-2.019v13.564h2.019v1.087H345.452z"/>
	<path d="M350.999,387.177l1.211,2.054c0.316,0.533,0.579,1.026,0.86,1.56h0.053c0.28-0.572,0.562-1.066,0.842-1.579l1.193-2.034
		h1.667l-2.896,4.62l2.983,4.937h-1.755l-1.246-2.152c-0.333-0.553-0.614-1.086-0.912-1.658h-0.035
		c-0.281,0.572-0.579,1.086-0.895,1.658l-1.229,2.152h-1.702l3.018-4.877l-2.878-4.68H350.999z"/>
	<path d="M357.873,399.557c0-0.713-0.021-1.288-0.041-1.817h0.81l0.041,0.955h0.021c0.368-0.679,0.952-1.082,1.761-1.082
		c1.198,0,2.099,1.14,2.099,2.83c0,2.002-1.085,2.992-2.252,2.992c-0.655,0-1.229-0.322-1.526-0.875h-0.021v3.026h-0.891V399.557z
		 M358.764,401.041c0,0.149,0.021,0.288,0.041,0.414c0.164,0.702,0.707,1.186,1.352,1.186c0.952,0,1.506-0.875,1.506-2.151
		c0-1.116-0.522-2.071-1.475-2.071c-0.614,0-1.188,0.495-1.362,1.254c-0.03,0.127-0.062,0.276-0.062,0.414V401.041z"/>
	<path d="M366.949,399.162c0.387-1.165,0.86-3.277,1.054-4.719l1.72-0.198c-0.404,1.679-1.176,3.87-1.667,4.799L366.949,399.162z"/>
	<path d="M375.865,387.177l1.859,5.647c0.193,0.632,0.404,1.382,0.544,1.954h0.035c0.158-0.572,0.334-1.303,0.544-1.994l1.685-5.607
		h1.632l-2.315,6.813c-1.105,3.277-1.86,4.956-2.913,5.982c-0.755,0.75-1.51,1.046-1.896,1.125l-0.386-1.461
		c0.386-0.138,0.895-0.414,1.351-0.849c0.422-0.375,0.948-1.047,1.299-1.936c0.07-0.178,0.123-0.315,0.123-0.414
		s-0.035-0.237-0.105-0.454l-3.141-8.807H375.865z"/>
	<path d="M383.037,399.557c0-0.713-0.021-1.288-0.041-1.817h0.81l0.041,0.955h0.021c0.368-0.679,0.952-1.082,1.761-1.082
		c1.198,0,2.099,1.14,2.099,2.83c0,2.002-1.085,2.992-2.252,2.992c-0.655,0-1.229-0.322-1.526-0.875h-0.021v3.026h-0.891V399.557z
		 M383.928,401.041c0,0.149,0.021,0.288,0.041,0.414c0.164,0.702,0.707,1.186,1.352,1.186c0.952,0,1.506-0.875,1.506-2.151
		c0-1.116-0.522-2.071-1.475-2.071c-0.614,0-1.188,0.495-1.362,1.254c-0.03,0.127-0.062,0.276-0.062,0.414V401.041z"/>
	<path d="M392.113,399.162c0.387-1.165,0.86-3.277,1.054-4.719l1.72-0.198c-0.404,1.679-1.176,3.87-1.667,4.799L392.113,399.162z"/>
	<path d="M399.502,395.727l3.844-5.627c0.368-0.514,0.719-0.968,1.105-1.481v-0.039h-4.598v-1.402h6.475l-0.018,1.086l-3.79,5.549
		c-0.351,0.533-0.702,1.007-1.088,1.5v0.04h4.966v1.382h-6.896V395.727z"/>
	<path d="M407.446,399.557c0-0.713-0.021-1.288-0.041-1.817h0.81l0.041,0.955h0.021c0.368-0.679,0.952-1.082,1.761-1.082
		c1.198,0,2.099,1.14,2.099,2.83c0,2.002-1.085,2.992-2.252,2.992c-0.655,0-1.229-0.322-1.526-0.875h-0.02v3.026h-0.892V399.557z
		 M408.338,401.041c0,0.149,0.02,0.288,0.04,0.414c0.164,0.702,0.707,1.186,1.352,1.186c0.952,0,1.506-0.875,1.506-2.151
		c0-1.116-0.522-2.071-1.475-2.071c-0.614,0-1.188,0.495-1.362,1.254c-0.03,0.127-0.061,0.276-0.061,0.414V401.041z"/>
	<path d="M416.066,383.188v15.757h-3.212v-1.087h2.019v-13.584h-2.019v-1.086H416.066z"/>
</g>
<ellipse opacity="0.7" stroke="#000000" stroke-miterlimit="10" cx="307.792" cy="403.593" rx="5.785" ry="6.506"/>
<g>
</g>
<g>
</g>
<g>
</g>
<g>
</g>
<g>
</g>
<g>
</g>
<g>
</g>
</svg>
